<?xml version="1.0" encoding="UTF-8"?>
<svg width="24px" height="30px" viewBox="0 0 24 30" version="1.1" xmlns="http://www.w3.org/2000/svg" xmlns:xlink="http://www.w3.org/1999/xlink">
    <!-- Generator: Sketch 47.1 (45422) - http://www.bohemiancoding.com/sketch -->
    <title>Icon</title>
    <desc>Created with Sketch.</desc>
    <defs></defs>
    <g id="Material-Design-Symbols" stroke="none" stroke-width="1" fill="none" fill-rule="evenodd">
        <g id="Overrides/Tab-Bar/Logut" transform="translate(-12.000000, -4.000000)" fill="#99B6D8">
            <g id="Overrides/Tab-Bar/Icons/Unselected/Logout">
                <g id="Page-1" transform="translate(12.000000, 4.000000)">
                    <path d="M0,30 L9.1332202,30 C10.163216,30 11,29.1432121 11,28.0885937 C11,27.0321116 10.163216,26.1771874 9.1332202,26.1771874 L3.73355961,26.1771874 L3.73355961,3.82281263 L9.1332202,3.82281263 C10.163216,3.82281263 11,2.96788837 11,1.91140632 C11,0.856787882 10.163216,0 9.1332202,0 L0,0 L0,30 Z" id="Fill-1"></path>
                    <path d="M23.681982,16.5487834 C23.7177364,16.4926284 23.7497237,16.4346046 23.7798322,16.3747072 C23.8042948,16.3260417 23.8325245,16.2792451 23.856987,16.2268373 C23.8833332,16.1575815 23.9059121,16.0883258 23.92285,16.0153228 C23.92285,15.9666574 23.9510749,15.9236031 23.9604832,15.8768113 L23.9623668,15.8768113 C23.9868293,15.7588901 24,15.6390953 24,15.5174269 C24,15.3976322 23.9868293,15.2759638 23.9623668,15.1580426 C23.9623668,15.1093772 23.9341419,15.0625805 23.9247288,15.0195311 L23.92285,15.0195311 C23.9059121,14.9484017 23.8833332,14.8772724 23.856987,14.8080166 C23.856987,14.7556088 23.8080619,14.7069386 23.7798322,14.6601467 C23.7497237,14.6002493 23.7177316,14.5440943 23.681982,14.4879393 C23.6481111,14.4355267 23.6104731,14.3924772 23.5709563,14.3438118 C23.5333183,14.2951464 23.5126229,14.2614553 23.4787472,14.224017 L17.3327597,7.61086572 C16.6045194,6.83406842 15.3794648,6.79290693 14.5985227,7.51727724 C13.8194592,8.24352115 13.7761994,9.4602049 14.5063136,10.2370022 L17.6526276,13.5912562 L8.92694389,13.5912562 C7.8637526,13.5912562 7,14.4485556 7,15.5079727 C7,16.5673899 7.8637526,17.4246893 8.92694389,17.4246893 L17.6507006,17.4246893 L14.5043866,20.7789433 L14.5062654,20.7789433 C13.7817827,21.5557406 13.8288483,22.7686388 14.6097616,23.4892763 C15.3907037,24.208045 16.6100738,24.163098 17.3326778,23.3863295 L23.4805923,16.8105541 C23.5144679,16.7731207 23.5389257,16.7338088 23.5728014,16.6907594 C23.6047934,16.6477099 23.6480726,16.6009133 23.6819435,16.5485007 L23.681982,16.5487834 Z" id="Fill-2"></path>
                </g>
            </g>
        </g>
    </g>
</svg>