<?xml version="1.0" encoding="UTF-8"?>
<svg width="26px" height="26px" viewBox="0 0 26 26" version="1.1" xmlns="http://www.w3.org/2000/svg" xmlns:xlink="http://www.w3.org/1999/xlink">
    <!-- Generator: Sketch 47.1 (45422) - http://www.bohemiancoding.com/sketch -->
    <title>Icon</title>
    <desc>Created with Sketch.</desc>
    <defs></defs>
    <g id="Material-Design-Symbols" stroke="none" stroke-width="1" fill="none" fill-rule="evenodd">
        <g id="Overrides/Tab-Bar/Settings" transform="translate(-11.000000, -5.000000)" fill="#99B6D8">
            <g id="Overrides/Tab-Bar/Icons/Unselected/Settings">
                <path d="M36.6699829,20.8989962 L35.2528537,19.5792453 C34.8840787,19.2363529 34.6655081,18.7536252 34.6510021,18.2501861 L34.6478941,18.2263613 L34.6499652,18.1465971 C34.6623974,17.6203515 34.8985821,17.1169124 35.296369,16.7678146 L36.7538868,15.4926158 C36.9828211,15.2916512 37.0615617,14.9674044 36.9496722,14.6846044 L35.7055538,11.5447396 C35.6340768,11.3655287 35.4983731,11.225688 35.3222729,11.1490212 C35.2217892,11.1055139 35.1202714,11.0868683 35.0094267,11.0910106 L33.0764209,11.1593796 C32.7977579,11.1697379 32.5139237,11.1158723 32.2549379,11.0039934 C32.0239324,10.9045467 31.8219336,10.7647007 31.6510178,10.5885978 L31.6116528,10.5471616 C31.2635892,10.1680176 31.0843729,9.65627802 31.1175219,9.14143566 L31.2459752,7.20946411 C31.2666946,6.90491844 31.0926628,6.62002344 30.8129709,6.49883103 L27.7115588,5.15940289 C27.4318616,5.03923941 27.1055437,5.10760838 26.8983763,5.33032663 L25.5796596,6.74639505 C25.2150215,7.1379765 24.6991449,7.35861565 24.1625304,7.35031516 C23.9139135,7.34617022 23.6704679,7.29437571 23.4415283,7.19492898 C23.1846242,7.08408698 22.9515344,6.91419748 22.7671469,6.7039008 L21.4919481,5.24638298 C21.4204711,5.16558185 21.3344907,5.10239207 21.2360809,5.05992168 C21.0589411,4.98326549 20.8631689,4.98015745 20.6849869,5.05059756 L17.5440613,6.29575019 C17.2612613,6.40762909 17.0789423,6.68733164 17.0893113,6.99084307 L17.1587172,8.92281461 C17.1783997,9.44386245 16.9784693,9.95560207 16.6096917,10.3285406 L16.5837957,10.3544392 C16.2005148,10.7252826 15.6742692,10.9190049 15.1397496,10.8837875 L13.2067433,10.7553368 C12.9032319,10.7346174 12.6183369,10.9086492 12.4971445,11.1883411 L11.1587506,14.2897532 C11.0375502,14.5694504 11.1069561,14.8957683 11.3296743,15.1029357 L12.7468035,16.4226867 C13.1218105,16.7717845 13.3414154,17.2648812 13.3496894,17.796298 L13.3476174,17.8957447 C13.3237918,18.4095528 13.0886422,18.8964175 12.7032822,19.2341386 L11.2457643,20.5093374 C11.01683,20.710302 10.9380895,21.0345487 11.0510132,21.3173487 L12.2961658,24.4572135 C12.3666059,24.6364245 12.5033465,24.7762652 12.6804813,24.852932 C12.7788911,24.895405 12.8845539,24.9150875 12.9922929,24.9109426 L14.9253,24.8415367 C15.2029288,24.8311757 15.4877973,24.885044 15.7467831,24.9979571 C15.9746832,25.096367 16.1725477,25.2320706 16.3672776,25.4299272 L16.417001,25.4848298 C16.7474559,25.8588025 16.9183717,26.3601732 16.8852227,26.8605096 L16.7557351,28.7935145 C16.7360526,29.097026 16.9100844,29.381921 17.1897737,29.5031134 L20.2893295,30.8435758 C20.5690267,30.9637392 20.8953446,30.8953703 21.102512,30.6736863 L22.4149967,29.2648576 C22.7703,28.8836451 23.2727314,28.6609375 23.8103537,28.6536712 L23.8476449,28.6547071 C24.0921194,28.6578148 24.3324411,28.7096096 24.5603465,28.8080194 C24.8151794,28.9178246 25.0441084,29.084614 25.2264274,29.2917814 L26.5088659,30.7575732 C26.580343,30.8383743 26.6663233,30.9015641 26.7647331,30.9440345 C26.940836,31.0206906 27.1366108,31.0237986 27.3158271,30.9523217 L30.4567527,29.7071688 C30.7395527,29.5952899 30.9218717,29.3155873 30.9115027,29.0131104 L30.8420968,27.0749326 C30.8244855,26.5745962 31.0099125,26.0804653 31.3507337,25.7158273 L31.3662713,25.6961448 L31.4294611,25.636063 C31.8117078,25.2734935 32.3327556,25.084969 32.8610697,25.1191522 L34.7919805,25.2465687 C35.0954919,25.2662512 35.3803869,25.0932563 35.5015793,24.8135643 L36.8410074,21.7140086 C36.9622078,21.4332771 36.892802,21.105925 36.6700837,20.8987575 L36.6699829,20.8989962 Z M22.4615643,21.5599059 C20.4985389,20.711506 19.5921946,18.4242842 20.440515,16.4610731 C21.288915,14.4990819 23.5761367,13.5917034 25.5393478,14.4400238 C27.5023733,15.2884238 28.4087175,17.5767063 27.5603971,19.5388566 C26.7109629,21.5029163 24.4247754,22.4092871 22.4615643,21.5599059 Z" id="Fill-48"></path>
            </g>
        </g>
    </g>
</svg>