<?xml version="1.0" encoding="UTF-8"?>
<svg width="27px" height="26px" viewBox="0 0 27 26" version="1.1" xmlns="http://www.w3.org/2000/svg" xmlns:xlink="http://www.w3.org/1999/xlink">
    <!-- Generator: Sketch 47.1 (45422) - http://www.bohemiancoding.com/sketch -->
    <title>Icon</title>
    <desc>Created with Sketch.</desc>
    <defs></defs>
    <g id="Material-Design-Symbols" stroke="none" stroke-width="1" fill="none" fill-rule="evenodd">
        <g id="Overrides/Tab-Bar/Item" transform="translate(-10.000000, -4.000000)" fill="#99B6D8">
            <g id="Overrides/Tab-Bar/Icons/Unselected/1">
                <path d="M35.9539643,12.901634 L28.0496227,12.901634 C27.5769371,12.9042304 27.1558005,12.6035912 27.0047097,12.1556962 L24.5699126,4.74681333 C24.4170427,4.30011836 23.9971284,4 23.5249996,4 C23.0528708,4 22.6329566,4.30011836 22.4800867,4.74681333 L20.0452895,12.1556962 C19.8941988,12.6035912 19.4730621,12.9042304 19.0003765,12.901634 L11.096035,12.901634 C10.6263914,12.8910954 10.2046057,13.1875798 10.0555036,13.6330511 C9.90640144,14.0785224 10.0647276,14.5691739 10.4460891,14.8434723 L16.8605548,19.4520883 C17.2395487,19.7212406 17.3995587,20.2055242 17.2555219,20.6474888 L14.8107255,28.0893688 C14.705656,28.4213337 14.7666996,28.7835751 14.9747601,29.0627724 C15.1828205,29.3419697 15.5124902,29.5040285 15.8606381,29.4982515 C16.0928005,29.4971693 16.3186269,29.422419 16.5055844,29.2847693 L22.8750538,24.7091504 C23.2637737,24.4311921 23.7862255,24.4311921 24.1749455,24.7091504 L30.5444149,29.2847693 C30.7313723,29.422419 30.9571988,29.4971693 31.1893612,29.4982515 C31.537509,29.5040285 31.8671787,29.3419697 32.0752392,29.0627724 C32.2832996,28.7835751 32.3443433,28.4213337 32.2392737,28.0893688 L29.7944774,20.6474888 C29.6504405,20.2055242 29.8104506,19.7212406 30.1894445,19.4520883 L36.6039101,14.8434723 C36.9852716,14.5691739 37.1435978,14.0785224 36.9944957,13.6330511 C36.8453935,13.1875798 36.4236078,12.8910954 35.9539643,12.901634 L35.9539643,12.901634 Z" id="Star"></path>
            </g>
        </g>
    </g>
</svg>